<?xml version="1.0" standalone="no"?>
<!DOCTYPE svg PUBLIC "-//W3C//DTD SVG 20010904//EN"
 "http://www.w3.org/TR/2001/REC-SVG-20010904/DTD/svg10.dtd">
<svg version="1.0" xmlns="http://www.w3.org/2000/svg"
 width="72.000000pt" height="72.000000pt" viewBox="0 0 72.000000 72.000000"
 preserveAspectRatio="xMidYMid meet">

<g transform="translate(0.000000,72.000000) scale(0.100000,-0.100000)"
fill="#000000" stroke="none">
<path d="M250 670 c-141 -52 -229 -188 -218 -335 18 -217 226 -353 438 -285
68 22 71 22 136 6 37 -9 68 -15 71 -13 2 3 -4 34 -13 71 -16 65 -16 68 6 136
54 168 -21 343 -178 413 -68 30 -172 33 -242 7z m217 -55 c48 -20 118 -90 143
-143 31 -64 31 -158 0 -229 -21 -49 -22 -71 -4 -116 5 -13 0 -14 -35 -5 -35 9
-49 7 -94 -12 -188 -81 -390 48 -390 250 0 79 18 124 73 183 81 88 199 116
307 72z"/>
</g>
</svg>
