<?xml version="1.0" standalone="no"?>
<!DOCTYPE svg PUBLIC "-//W3C//DTD SVG 20010904//EN"
 "http://www.w3.org/TR/2001/REC-SVG-20010904/DTD/svg10.dtd">
<svg version="1.0" xmlns="http://www.w3.org/2000/svg"
 width="72.000000pt" height="72.000000pt" viewBox="0 0 72.000000 72.000000"
 preserveAspectRatio="xMidYMid meet">

<g transform="translate(0.000000,72.000000) scale(0.100000,-0.100000)"
fill="#000000" stroke="none">
<path d="M192 522 l-153 -148 3 -164 3 -165 105 0 105 0 5 108 c5 104 6 110
33 133 19 16 40 24 67 24 27 0 48 -8 67 -24 27 -23 28 -29 33 -133 l5 -108
105 0 105 0 3 165 2 165 -154 148 c-85 81 -160 147 -168 146 -7 0 -82 -66
-166 -147z"/>
</g>
</svg>
