<?xml version="1.0" standalone="no"?>
<!DOCTYPE svg PUBLIC "-//W3C//DTD SVG 20010904//EN"
 "http://www.w3.org/TR/2001/REC-SVG-20010904/DTD/svg10.dtd">
<svg version="1.0" xmlns="http://www.w3.org/2000/svg"
 width="96.000000pt" height="96.000000pt" viewBox="0 0 96.000000 96.000000"
 preserveAspectRatio="xMidYMid meet">

<g transform="translate(0.000000,96.000000) scale(0.100000,-0.100000)"
fill="#000000" stroke="none">
<path d="M365 819 c-238 -77 -319 -350 -160 -543 32 -40 35 -48 35 -110 l0
-66 68 33 c64 31 70 32 126 23 149 -25 309 61 373 200 86 187 -13 400 -216
464 -78 25 -148 25 -226 -1z m251 -72 c96 -49 164 -153 164 -252 0 -178 -188
-319 -368 -275 -43 10 -55 9 -81 -4 l-31 -17 0 32 c0 23 -12 44 -45 81 -48 53
-75 122 -75 189 0 114 94 229 220 270 49 16 162 4 216 -24z"/>
<path d="M362 500 c-46 -50 -81 -90 -79 -90 3 0 36 18 74 39 l68 39 45 -44 46
-44 44 47 c25 27 63 68 85 92 l40 44 -75 -41 -75 -41 -45 44 -46 45 -82 -90z"/>
</g>
</svg>
