<?xml version="1.0" standalone="no"?>
<!DOCTYPE svg PUBLIC "-//W3C//DTD SVG 20010904//EN"
 "http://www.w3.org/TR/2001/REC-SVG-20010904/DTD/svg10.dtd">
<svg version="1.0" xmlns="http://www.w3.org/2000/svg"
 width="72.000000pt" height="72.000000pt" viewBox="0 0 72.000000 72.000000"
 preserveAspectRatio="xMidYMid meet">

<g transform="translate(0.000000,72.000000) scale(0.100000,-0.100000)"
fill="#000000" stroke="none">
<path d="M145 671 c-49 -22 -91 -69 -106 -119 -7 -23 -9 -104 -7 -218 3 -176
4 -182 30 -221 47 -71 74 -78 304 -78 200 0 201 0 241 27 67 44 78 78 81 268
4 207 -1 241 -41 287 -57 64 -89 73 -287 73 -148 0 -181 -3 -215 -19z m425
-56 c54 -28 60 -55 60 -255 0 -273 3 -270 -265 -270 -278 0 -275 -2 -275 270
0 272 -3 269 268 270 145 0 189 -3 212 -15z"/>
<path d="M345 528 c-2 -7 -6 -40 -7 -73 l-3 -60 -75 -5 c-67 -4 -75 -7 -75
-25 0 -18 8 -20 77 -23 l77 -3 3 -77 c3 -69 5 -77 23 -77 18 0 20 8 23 77 l3
77 72 3 c64 3 72 5 72 23 0 18 -8 20 -72 23 l-72 3 -3 72 c-2 59 -6 72 -21 75
-9 2 -19 -2 -22 -10z"/>
</g>
</svg>
