<?xml version="1.0" standalone="no"?>
<!DOCTYPE svg PUBLIC "-//W3C//DTD SVG 20010904//EN"
 "http://www.w3.org/TR/2001/REC-SVG-20010904/DTD/svg10.dtd">
<svg version="1.0" xmlns="http://www.w3.org/2000/svg"
 width="72.000000pt" height="72.000000pt" viewBox="0 0 72.000000 72.000000"
 preserveAspectRatio="xMidYMid meet">

<g transform="translate(0.000000,72.000000) scale(0.100000,-0.100000)"
fill="#000000" stroke="none">
<path d="M135 671 c-91 -42 -105 -82 -105 -311 0 -229 14 -269 105 -311 34
-16 67 -19 225 -19 234 0 274 14 315 113 22 53 22 381 0 434 -41 99 -81 113
-315 113 -158 0 -191 -3 -225 -19z m275 -90 c22 -33 40 -62 40 -65 0 -4 -31
-6 -69 -6 -76 0 -62 -10 -135 103 l-18 27 70 0 71 0 41 -59z m131 49 c43 -12
76 -45 89 -88 l9 -32 -58 0 c-64 0 -53 -9 -125 103 l-18 27 33 0 c19 0 50 -5
70 -10z m-337 -55 c20 -30 36 -57 36 -60 0 -3 -36 -5 -79 -5 l-80 0 10 33 c7
26 58 87 73 87 2 0 20 -25 40 -55z m434 -263 c-3 -150 -11 -174 -65 -209 -23
-16 -52 -18 -213 -18 -161 0 -190 2 -213 18 -54 35 -62 59 -65 209 l-4 138
282 0 282 0 -4 -138z"/>
<path d="M277 383 c-10 -9 -8 -211 2 -217 11 -7 186 97 185 109 -1 9 -160 112
-175 114 -3 1 -9 -2 -12 -6z"/>
</g>
</svg>
