<?xml version="1.0" standalone="no"?>
<!DOCTYPE svg PUBLIC "-//W3C//DTD SVG 20010904//EN"
 "http://www.w3.org/TR/2001/REC-SVG-20010904/DTD/svg10.dtd">
<svg version="1.0" xmlns="http://www.w3.org/2000/svg"
 width="72.000000pt" height="72.000000pt" viewBox="0 0 72.000000 72.000000"
 preserveAspectRatio="xMidYMid meet">

<g transform="translate(0.000000,72.000000) scale(0.100000,-0.100000)"
fill="#000000" stroke="none">
<path d="M217 676 c-176 -66 -240 -261 -135 -413 35 -51 114 -100 178 -109 57
-9 141 9 181 37 l31 22 94 -94 c89 -89 95 -93 111 -76 17 16 13 22 -75 110
l-93 93 28 50 c24 42 28 60 28 124 0 111 -49 191 -148 241 -52 27 -149 34
-200 15z m178 -64 c75 -37 118 -107 118 -193 -1 -123 -91 -213 -214 -212 -124
1 -213 91 -212 214 2 161 165 262 308 191z"/>
</g>
</svg>
